<?xml version="1.0" encoding="UTF-8"?>
<svg xmlns="http://www.w3.org/2000/svg" viewBox="0 0 800 450" role="img" aria-label="Boston seafood clam chowder lobster">
  <defs>
    <linearGradient id="fd-sky" x1="0" y1="0" x2="0" y2="1">
      <stop offset="0%" stop-color="#f0c890"/>
      <stop offset="100%" stop-color="#4a3020"/>
    </linearGradient>
  </defs>
  <rect width="800" height="450" fill="url(#fd-sky)"/>
  <ellipse cx="280" cy="280" rx="100" ry="35" fill="#e8e0d0" stroke="#c8b8a0" stroke-width="3"/>
  <path d="M200 265 Q280 220 360 265 L360 295 Q280 310 200 295 Z" fill="#f8f0e8"/>
  <rect x="240" y="250" width="80" height="12" fill="#c87848" rx="3"/>
  <g transform="translate(480, 200)">
    <ellipse cx="60" cy="70" rx="70" ry="22" fill="#f8e8d8" stroke="#d8a878"/>
    <path d="M10 65 Q60 30 110 65" fill="#e83838"/>
    <rect x="25" y="55" width="70" height="18" fill="#f0d8c0" rx="4"/>
  </g>
  <g transform="translate(150, 180)">
    <ellipse cx="40" cy="50" rx="35" ry="40" fill="#f8f0e0" stroke="#d0c0a8"/>
    <circle cx="30" cy="40" r="6" fill="#8a6040"/>
    <circle cx="50" cy="45" r="5" fill="#8a6040"/>
    <circle cx="38" cy="58" r="5" fill="#8a6040"/>
  </g>
  <text x="400" y="400" text-anchor="middle" fill="#fff" font-family="Georgia, serif" font-size="40" font-weight="700">Seafood</text>
  <text x="400" y="430" text-anchor="middle" fill="#ffe8c8" font-family="Georgia, serif" font-size="16">Chowder · Lobster roll · Cannoli</text>
</svg>
