<?xml version="1.0" encoding="UTF-8"?>
<svg xmlns="http://www.w3.org/2000/svg" viewBox="0 0 800 450" role="img" aria-label="Boston Harbor waterfront">
  <defs>
    <linearGradient id="hb-sky" x1="0" y1="0" x2="0" y2="1">
      <stop offset="0%" stop-color="#90c8f0"/>
      <stop offset="100%" stop-color="#2a5070"/>
    </linearGradient>
    <linearGradient id="hb-water" x1="0" y1="0" x2="0" y2="1">
      <stop offset="0%" stop-color="#4a90b8"/>
      <stop offset="100%" stop-color="#1a3a50"/>
    </linearGradient>
  </defs>
  <rect width="800" height="450" fill="url(#hb-sky)"/>
  <path d="M0 280 Q200 260 400 275 T800 265 L800 450 L0 450 Z" fill="url(#hb-water)"/>
  <g fill="#5a6878" transform="translate(0, 180)">
    <rect x="50" y="50" width="80" height="50"/><rect x="600" y="40" width="100" height="60"/>
    <rect x="200" y="60" width="60" height="40" opacity="0.7"/>
  </g>
  <g transform="translate(280, 220)">
    <path d="M0 50 L120 50 L100 0 L20 0 Z" fill="#8a5040"/>
    <rect x="15" y="-15" width="90" height="20" fill="#6a3830"/>
    <line x1="60" y1="0" x2="60" y2="-40" stroke="#4a3028" stroke-width="3"/>
    <path d="M60 -40 L90 -25 L60 -10 Z" fill="#e8e0d0"/>
  </g>
  <g transform="translate(480, 240)">
    <ellipse cx="50" cy="30" rx="45" ry="18" fill="#6a5048"/>
    <rect x="20" y="15" width="60" height="20" fill="#7a6058" rx="3"/>
    <rect x="45" y="0" width="10" height="18" fill="#5a4038"/>
  </g>
  <circle cx="120" cy="310" r="6" fill="#fff" opacity="0.4"/>
  <circle cx="350" cy="320" r="4" fill="#fff" opacity="0.3"/>
  <text x="400" y="400" text-anchor="middle" fill="#fff" font-family="Georgia, serif" font-size="40" font-weight="700">Harbor</text>
  <text x="400" y="430" text-anchor="middle" fill="#c8e8ff" font-family="Georgia, serif" font-size="16">Aquarium · USS Constitution · Harborwalk</text>
</svg>
