<?xml version="1.0" encoding="UTF-8"?>
<svg xmlns="http://www.w3.org/2000/svg" viewBox="0 0 108 108" role="img" aria-label="Boston 2026">
  <rect width="108" height="108" rx="22" fill="#0C2340"/>
  <!-- Hanging serif B — classic Boston baseball style -->
  <path
    fill="#C8102E"
    fill-rule="evenodd"
    d="M22 26
       L34 18
       H50
       C68 18 80 28 80 40
       C80 50 72 56 62 58
       C74 60 84 70 84 82
       C84 96 70 90 54 90
       H22
       V26
       Z
       M36 26
       H50
       C60 26 68 32 68 40
       C68 48 60 54 50 54
       H36
       V26
       Z
       M36 62
       H52
       C64 62 72 68 72 78
       C72 88 62 90 52 90
       H36
       V62
       Z"/>
</svg>
